<svg width="50" height="50" viewBox="0 0 50 50" fill="none" xmlns="http://www.w3.org/2000/svg">
<path d="M16.2562 11.9396C17.4833 11.9396 18.5875 12.0458 19.6 12.2625C20.6062 12.4771 21.4645 12.8312 22.1895 13.3208C22.9041 13.8104 23.4625 14.4604 23.8645 15.2771C24.2541 16.0833 24.4479 17.0917 24.4479 18.2833C24.4479 19.575 24.1562 20.6542 23.5708 21.5146C22.9812 22.3771 22.1125 23.0833 20.9541 23.6292C22.5312 24.0854 23.7 24.8833 24.475 26.0167C25.2541 27.1604 25.6354 28.5292 25.6354 30.1333C25.6354 31.4354 25.3875 32.5542 24.8895 33.4937C24.4097 34.4193 23.7136 35.2155 22.8604 35.8146C21.9766 36.43 20.9893 36.8816 19.9458 37.1479C18.8517 37.4351 17.7249 37.5794 16.5937 37.5771H4.16663V11.9396H16.2562ZM15.525 22.2979C16.525 22.2979 17.3541 22.0604 18.0083 21.5792C18.6583 21.1042 18.9729 20.3208 18.9729 19.2479C18.9729 18.6521 18.8666 18.1604 18.6583 17.775C18.4553 17.4042 18.1549 17.0959 17.7895 16.8833C17.4071 16.6565 16.985 16.5045 16.5458 16.4354C16.067 16.3461 15.5807 16.3036 15.0937 16.3083H9.81246V22.2979H15.525ZM15.8395 33.2125C16.3958 33.2125 16.925 33.1646 17.4229 33.0521C17.925 32.9437 18.3708 32.7687 18.75 32.5083C19.1291 32.2583 19.4416 31.9187 19.6666 31.4854C19.8937 31.0562 20.0041 30.4958 20.0041 29.8229C20.0041 28.5021 19.6312 27.5625 18.8937 26.9937C18.1541 26.4312 17.1625 26.1521 15.9479 26.1521H9.81246V33.2146L15.8395 33.2125ZM33.6833 33.1271C34.4479 33.8729 35.55 34.2479 36.9833 34.2479C38.0104 34.2479 38.8979 33.9875 39.6458 33.4708C40.3833 32.9521 40.8333 32.3979 41.0062 31.825H45.4958C44.775 34.0583 43.6812 35.6542 42.1854 36.6146C40.7083 37.5792 38.9104 38.0583 36.8104 38.0583C35.3479 38.0583 34.0312 37.8229 32.852 37.3562C31.7202 36.9155 30.6974 36.2346 29.8541 35.3604C29.0247 34.4659 28.3836 33.4138 27.9687 32.2667C27.5127 30.9981 27.2869 29.6583 27.302 28.3104C27.302 26.9229 27.5333 25.625 27.9875 24.4271C28.4186 23.2691 29.0806 22.2109 29.9333 21.3167C30.777 20.4417 31.777 19.7521 32.9416 19.2458C34.1663 18.7308 35.484 18.474 36.8125 18.4917C38.3833 18.4917 39.7562 18.7958 40.9354 19.4083C42.0789 19.993 43.0704 20.8361 43.8312 21.8708C44.5875 22.8979 45.127 24.075 45.4625 25.3937C45.7979 26.7104 45.9145 28.0854 45.8187 29.525H32.4208C32.4229 30.9917 32.9166 32.3812 33.6833 33.1271ZM39.5416 23.375C38.9354 22.7042 37.9104 22.3417 36.6562 22.3417C35.8416 22.3417 35.1687 22.4771 34.627 22.7562C34.1318 23.0064 33.6924 23.3544 33.3354 23.7792C33.0218 24.1648 32.7894 24.6098 32.652 25.0875C32.5319 25.4858 32.4544 25.8957 32.4208 26.3104H40.7166C40.5958 25.0104 40.15 24.05 39.5416 23.375ZM31.3791 13.6604H41.7729V16.1917H31.3791V13.6604Z" fill="#323D59"/>
</svg>
