<svg width="50" height="48" viewBox="0 0 50 48" fill="none" xmlns="http://www.w3.org/2000/svg">
<path d="M10.3812 14.394C12.8987 14.394 14.9395 12.4348 14.9395 10.018C14.9395 7.60123 12.8987 5.64203 10.3812 5.64203C7.86371 5.64203 5.82288 7.60123 5.82288 10.018C5.82288 12.4348 7.86371 14.394 10.3812 14.394Z" fill="#323D59"/>
<path d="M19.2437 17.71V41.988H27.0958V29.982C27.0958 26.814 27.7166 23.746 31.8083 23.746C35.8437 23.746 35.8937 27.368 35.8937 30.182V41.99H43.75V28.676C43.75 22.136 42.2833 17.11 34.3208 17.11C30.4979 17.11 27.9354 19.124 26.8875 21.03H26.7812V17.71H19.2437ZM6.44788 17.71H14.3125V41.988H6.44788V17.71Z" fill="#323D59"/>
</svg>
