<svg width="50" height="48" viewBox="0 0 50 48" fill="none" xmlns="http://www.w3.org/2000/svg">
<path fill-rule="evenodd" clip-rule="evenodd" d="M25.0542 4C13.5771 4 4.27502 12.93 4.27502 23.948C4.27502 32.76 10.2271 40.238 18.4854 42.878C19.525 43.058 19.9 42.444 19.9 41.916C19.9 41.442 19.8834 40.186 19.8771 38.524C14.0959 39.728 12.875 35.848 12.875 35.848C11.9334 33.544 10.5688 32.93 10.5688 32.93C8.68336 31.692 10.7125 31.72 10.7125 31.72C12.8 31.86 13.8938 33.776 13.8938 33.776C15.7479 36.824 18.7604 35.944 19.9396 35.434C20.1292 34.144 20.6709 33.264 21.2625 32.766C16.65 32.264 11.8 30.552 11.8 22.906C11.8 20.732 12.6104 18.948 13.9334 17.556C13.7229 17.05 13.0042 15.02 14.1396 12.276C14.1396 12.276 15.8834 11.738 19.8521 14.318C21.5471 13.8753 23.2955 13.6494 25.0521 13.646C26.8087 13.6487 28.5573 13.8747 30.2521 14.318C34.2229 11.736 35.9646 12.276 35.9646 12.276C37.1 15.02 36.3875 17.05 36.1709 17.556C37.5042 18.948 38.3042 20.73 38.3042 22.906C38.3042 30.572 33.45 32.256 28.8209 32.75C29.5604 33.366 30.2271 34.582 30.2271 36.442C30.2271 39.11 30.2021 41.262 30.2021 41.916C30.2021 42.45 30.5729 43.07 31.6334 42.874C39.8875 40.23 45.8334 32.758 45.8334 23.948C45.8334 12.93 36.5313 4 25.0542 4Z" fill="#323D59"/>
</svg>
