<svg width="110" height="111" viewBox="0 0 110 111" fill="none" xmlns="http://www.w3.org/2000/svg">
<g clip-path="url(#clip0_13_41)">
<path d="M39.1361 7.81021C40.0948 3.10732 47.2771 0.570621 51.4712 0.282217C64.311 -0.599838 77.4971 0.861131 90.2799 0.949547C94.8773 0.981124 102.968 -0.380904 106.716 1.8295C115.337 6.91131 104.828 19.8306 99.8739 23.8998C86.9432 34.5224 72.6568 36.1391 56.6155 37.699C55.585 37.8001 51.7478 37.4338 51.3677 38.5432C51.5599 56.6348 50.7447 75.5095 51.638 93.5001C52.4996 100.62 63.8464 100.759 65.9328 93.9842L66.389 62.4681C66.5854 60.2746 66.9085 58.662 69.2104 57.9295C70.9125 57.3863 74.6272 57.4242 76.135 58.5294C76.6059 58.8747 77.1825 59.683 77.2881 60.2577L77.2268 100.129C71.0096 116.042 40.6925 114.322 39.1255 96.0599L38.9798 36.1012C37.4889 34.7434 31.8651 34.5455 30.8768 32.6614C30.5748 32.8235 33.2378 34.0719 32.8872 34.0761C21.6883 31.1647 0.496276 19.3948 0 6.22504C0.0527953 3.9199 1.85628 1.24637 4.16238 0.757979C11.0025 -0.692465 10.8885 4.66513 13.3551 8.89225C18.113 16.7802 30.3235 22.0894 39.1382 23.6346V7.81021H39.1361ZM54.6917 12.1258C53.6632 12.6205 52.2589 12.3931 51.7077 13.6267L51.7943 25.565C52.394 26.4702 60.25 26.2871 61.7641 26.2071C73.5164 25.6281 85.6635 21.4179 93.9798 12.9194L93.5004 12.1236H54.6938L54.6917 12.1258Z" fill="black"/>
<path d="M72.0676 54.0222C75.0301 54.0222 77.4316 51.6282 77.4316 48.6751C77.4316 45.722 75.0301 43.3281 72.0676 43.3281C69.1052 43.3281 66.7036 45.722 66.7036 48.6751C66.7036 51.6282 69.1052 54.0222 72.0676 54.0222Z" fill="black"/>
</g>
<defs>
<clipPath id="clip0_13_41">
<rect width="110" height="111" fill="white"/>
</clipPath>
</defs>
</svg>
