<svg width="266" height="77" viewBox="0 0 266 77" fill="none" xmlns="http://www.w3.org/2000/svg">
<path d="M60.3535 4.36914C60.3535 5.05273 60.1582 5.6875 59.7676 6.27344C58.9538 7.47786 57.7331 8.08008 56.1055 8.08008H33.791C28.5827 49.1608 25.832 70.4661 25.5391 71.9961C25.5065 72.1914 25.474 72.3867 25.4414 72.582C24.9206 74.8607 23.6022 76 21.4863 76C20.7051 76 20.0215 75.7884 19.4355 75.3652C18.1986 74.5189 17.5801 73.1517 17.5801 71.2637C17.5801 70.873 19.5495 56.0293 23.4883 26.7324C24.8229 16.8691 25.653 10.6517 25.9785 8.08008H5.12891C4.38021 8.08008 3.66406 7.96615 2.98047 7.73828C1.25521 7.15234 0.392578 6.07812 0.392578 4.51562C0.392578 3.73438 0.587891 3.00195 0.978516 2.31836C1.75977 1.01628 2.98047 0.365234 4.64062 0.365234H56.2031C56.6589 0.365234 57.1471 0.462891 57.668 0.658203C59.4583 1.3418 60.3535 2.57878 60.3535 4.36914ZM41.1641 60.668C41.1641 59.5612 41.2292 58.3893 41.3594 57.1523C42.043 51.5534 43.8008 46.5892 46.6328 42.2598C50.0833 36.9863 54.2337 34.3496 59.084 34.3496C61.1673 34.3496 62.9902 34.7565 64.5527 35.5703C65.2038 34.7891 66.099 34.3822 67.2383 34.3496C67.8893 34.3496 68.2962 34.3984 68.459 34.4961C69.8587 34.9518 70.5586 36.3353 70.5586 38.6465C70.5586 39.5905 70.3958 41.625 70.0703 44.75C69.0612 53.9948 68.5566 59.7402 68.5566 61.9863C68.5566 63.4837 68.8659 64.8835 69.4844 66.1855C70.3958 68.1387 71.6003 69.1152 73.0977 69.1152C73.3906 69.1152 73.6999 69.0827 74.0254 69.0176C75.002 68.8223 76.4017 68.0736 78.2246 66.7715C80.015 65.4694 81.4473 64.8184 82.5215 64.8184C82.9447 64.8184 83.3841 64.9648 83.8398 65.2578C84.7839 65.9089 85.2559 66.7715 85.2559 67.8457C85.1582 69.5384 83.8724 71.2962 81.3984 73.1191C78.4362 75.2025 75.2949 76.2441 71.9746 76.2441C67.873 76.2116 64.8457 74.1445 62.8926 70.043C62.4368 70.5964 61.916 71.1497 61.3301 71.7031C58.1074 74.7305 54.8359 76.2441 51.5156 76.2441C49.4323 76.2441 47.6257 75.707 46.0957 74.6328C42.8079 72.224 41.1641 67.569 41.1641 60.668ZM62.6484 44.6035C62.6484 44.6035 62.7624 43.4967 62.9902 41.2832C62.2741 40.9251 61.5254 40.7461 60.7441 40.7461C60.1582 40.7461 59.556 40.8275 58.9375 40.9902C55.9102 41.8366 53.3548 44.6361 51.2715 49.3887C49.416 53.653 48.4883 57.9336 48.4883 62.2305C48.4883 62.3932 48.4883 62.556 48.4883 62.7188C48.5859 66.6901 49.5951 68.6758 51.5156 68.6758C52.5247 68.6432 53.7617 68.0898 55.2266 67.0156C56.724 65.9414 57.8145 64.9323 58.498 63.9883C58.9212 63.3698 59.4909 61.5632 60.207 58.5684C61.5091 53.002 62.3229 48.347 62.6484 44.6035ZM92.4336 38.1582C92.4336 39.1022 92.2708 41.1367 91.9453 44.2617C90.9362 53.5065 90.4316 59.252 90.4316 61.498C90.4316 62.9954 90.7409 64.3952 91.3594 65.6973C92.2708 67.6504 93.4915 68.627 95.0215 68.627C95.347 68.627 95.6888 68.5944 96.0469 68.5293C96.9909 68.3014 98.3581 67.5365 100.148 66.2344C101.906 64.9323 103.322 64.2812 104.396 64.2812C104.852 64.2812 105.308 64.444 105.764 64.7695C106.675 65.4206 107.131 66.2832 107.131 67.3574C107.001 69.0176 105.715 70.7754 103.273 72.6309C100.279 74.7142 97.1374 75.7559 93.8496 75.7559C91.0827 75.7559 88.7878 74.7956 86.9648 72.875C84.2305 69.9453 82.8633 65.2904 82.8633 58.9102C82.8633 56.7292 83.3027 52.4648 84.1816 46.1172C84.5723 43.1549 84.849 40.974 85.0117 39.5742C85.0443 39.2812 85.0768 38.9883 85.1094 38.6953C85.6302 35.4401 86.9648 33.8125 89.1133 33.8125C89.4714 33.8125 89.8294 33.8451 90.1875 33.9102C91.6849 34.2682 92.4336 35.6842 92.4336 38.1582ZM86.8672 25.3652C86.8672 24.7793 86.9974 24.2259 87.2578 23.7051C87.9089 22.4355 88.9668 21.8008 90.4316 21.8008C91.0176 21.8008 91.571 21.931 92.0918 22.1914C93.3613 22.8424 93.9961 23.9004 93.9961 25.3652C93.9961 25.9512 93.8659 26.5046 93.6055 27.0254C92.9544 28.2949 91.8965 28.9297 90.4316 28.9297C89.8457 28.9297 89.2923 28.7995 88.7715 28.5391C87.502 27.888 86.8672 26.8301 86.8672 25.3652ZM101.174 70.9219C101.174 70.9219 102.557 60.4727 105.324 39.5742C105.389 39.0208 105.471 38.5 105.568 38.0117C106.154 35.2122 107.424 33.8125 109.377 33.8125C109.735 33.8125 110.093 33.8451 110.451 33.9102C111.949 34.2682 112.697 35.6842 112.697 38.1582C112.697 38.5163 112.665 39.1348 112.6 40.0137C112.567 40.5996 112.551 41.0553 112.551 41.3809C112.616 41.2507 112.697 41.1204 112.795 40.9902C115.204 36.7259 118.638 34.5938 123.098 34.5938C124.693 34.5938 126.158 35.0658 127.492 36.0098C129.478 37.4746 130.471 39.4115 130.471 41.8203C130.471 42.2109 130.454 43.1387 130.422 44.6035C130.389 47.9238 130.373 50.5605 130.373 52.5137C130.373 59.1543 130.568 63.0605 130.959 64.2324C131.057 64.4928 131.154 64.7695 131.252 65.0625C132.163 67.5365 133.449 68.7734 135.109 68.7734C135.402 68.7734 135.728 68.7409 136.086 68.6758C137.062 68.4805 138.462 67.7155 140.285 66.3809C142.076 65.1113 143.508 64.4766 144.582 64.4766C145.005 64.4766 145.412 64.5905 145.803 64.8184C146.812 65.4043 147.316 66.3646 147.316 67.6992C147.121 69.2943 145.754 71.0521 143.215 72.9727C140.22 74.9909 137.209 76 134.182 76C131.74 76 129.673 75.3327 127.98 73.998C124.497 71.1986 122.756 65.0625 122.756 55.5898C122.756 54.9062 122.772 53.7995 122.805 52.2695C122.87 50.6745 122.902 49.3398 122.902 48.2656C122.902 44.7826 122.512 42.9922 121.73 42.8945C121.6 42.8945 121.438 42.9271 121.242 42.9922C119.387 43.6758 117.01 47.3704 114.113 54.0762C111.574 59.9681 109.947 64.8672 109.23 68.7734L109.133 70.1895C109.035 71.3613 108.71 72.4355 108.156 73.4121C107.212 74.9746 106.04 75.7559 104.641 75.7559C104.25 75.7559 103.859 75.6745 103.469 75.5117C101.939 74.7956 101.174 73.2656 101.174 70.9219ZM145.461 60.3262C145.461 59.2194 145.526 58.0475 145.656 56.8105C146.34 51.2441 148.098 46.2962 150.93 41.9668C154.38 36.6608 158.531 34.0078 163.381 34.0078C165.497 34.0078 167.336 34.3984 168.898 35.1797C169.517 34.431 170.38 34.0404 171.486 34.0078C172.007 34.0078 172.495 34.0729 172.951 34.2031C174.188 34.6589 174.807 36.026 174.807 38.3047C174.807 39.2487 174.644 41.2669 174.318 44.3594C173.342 53.6693 172.854 59.431 172.854 61.6445C172.854 63.1419 173.146 64.5417 173.732 65.8438C174.644 67.7969 175.865 68.7734 177.395 68.7734C178.013 68.7734 178.632 68.6595 179.25 68.4316C183.84 66.8366 187.73 59.8053 190.92 47.3379C189.618 47.0124 188.413 46.4753 187.307 45.7266C184.344 43.7409 182.863 40.86 182.863 37.084C182.863 35.6842 183.221 34.3659 183.938 33.1289C185.37 30.6549 187.648 29.418 190.773 29.418C192.368 29.418 193.882 29.8411 195.314 30.6875C197.658 32.1523 198.83 34.1706 198.83 36.7422C198.83 37.7839 198.749 39.1185 198.586 40.7461C199.367 40.3229 200.507 39.6068 202.004 38.5977C203.762 37.3607 205.08 36.7422 205.959 36.7422C206.968 36.7422 207.88 37.0026 208.693 37.5234C209.637 38.1094 210.109 38.7116 210.109 39.3301C210.109 39.5254 209.995 40.0462 209.768 40.8926C208.075 46.5241 207.229 51.4883 207.229 55.7852C207.229 58.9753 207.554 61.5794 208.205 63.5977C209.117 66.2669 210.467 67.6016 212.258 67.6016C213.267 67.5365 214.911 66.8203 217.189 65.4531C219.175 64.1185 220.656 63.4512 221.633 63.4512C222.121 63.4512 222.609 63.6302 223.098 63.9883C223.944 64.6068 224.367 65.3392 224.367 66.1855C224.27 68.0085 223 69.8639 220.559 71.752C217.661 73.8678 214.569 74.9258 211.281 74.9258C210.891 74.9258 210.484 74.9095 210.061 74.877C206.447 74.4212 203.794 72.3379 202.102 68.627C200.865 66.446 200.246 62.6699 200.246 57.2988C200.246 56.2572 200.279 55.1504 200.344 53.9785C200.539 50.4303 200.832 47.8913 201.223 46.3613C200.214 46.8496 198.993 47.2402 197.561 47.5332C197.365 48.5423 197.154 49.5352 196.926 50.5117C192.922 67.4388 186.021 75.9023 176.223 75.9023C172.121 75.8698 169.126 73.8027 167.238 69.7012C166.815 70.1895 166.327 70.694 165.773 71.2148C162.486 74.3398 159.165 75.9023 155.812 75.9023C153.729 75.9023 151.923 75.3652 150.393 74.291C147.105 71.8822 145.461 67.2272 145.461 60.3262ZM166.701 45.873C166.734 45.6777 166.929 44.0501 167.287 40.9902C166.473 40.5996 165.725 40.4043 165.041 40.4043C164.423 40.4043 163.804 40.4857 163.186 40.6484C160.191 41.5599 157.652 44.3919 155.568 49.1445C153.68 53.4089 152.736 57.6569 152.736 61.8887C152.736 62.5072 152.769 63.0931 152.834 63.6465C153.127 66.804 154.12 68.3828 155.812 68.3828C156.724 68.3828 157.831 67.9271 159.133 67.0156C160.663 65.9414 161.883 64.8184 162.795 63.6465C163.055 63.2559 163.413 62.2305 163.869 60.5703C165.139 55.8177 166.083 50.9186 166.701 45.873ZM188.771 37.4258C188.804 39.2487 189.943 40.5508 192.189 41.332C192.515 39.3138 192.678 38.0117 192.678 37.4258C192.678 37.2305 192.645 37.0189 192.58 36.791C192.352 35.8796 191.766 35.4238 190.822 35.4238C190.627 35.4238 190.415 35.4564 190.188 35.5215C189.243 35.8145 188.771 36.4492 188.771 37.4258ZM220.949 60.668C220.949 59.5612 221.014 58.3893 221.145 57.1523C221.828 51.5534 223.586 46.5892 226.418 42.2598C229.868 36.9863 234.019 34.3496 238.869 34.3496C240.952 34.3496 242.775 34.7565 244.338 35.5703C244.989 34.7891 245.884 34.3822 247.023 34.3496C247.674 34.3496 248.081 34.3984 248.244 34.4961C249.644 34.9518 250.344 36.3353 250.344 38.6465C250.344 39.5905 250.181 41.625 249.855 44.75C248.846 53.9948 248.342 59.7402 248.342 61.9863C248.342 63.4837 248.651 64.8835 249.27 66.1855C250.181 68.1387 251.385 69.1152 252.883 69.1152C253.176 69.1152 253.485 69.0827 253.811 69.0176C254.787 68.8223 256.187 68.0736 258.01 66.7715C259.8 65.4694 261.232 64.8184 262.307 64.8184C262.73 64.8184 263.169 64.9648 263.625 65.2578C264.569 65.9089 265.041 66.7715 265.041 67.8457C264.943 69.5384 263.658 71.2962 261.184 73.1191C258.221 75.2025 255.08 76.2441 251.76 76.2441C247.658 76.2116 244.631 74.1445 242.678 70.043C242.222 70.5964 241.701 71.1497 241.115 71.7031C237.893 74.7305 234.621 76.2441 231.301 76.2441C229.217 76.2441 227.411 75.707 225.881 74.6328C222.593 72.224 220.949 67.569 220.949 60.668ZM242.434 44.6035C242.434 44.6035 242.548 43.4967 242.775 41.2832C242.059 40.9251 241.311 40.7461 240.529 40.7461C239.943 40.7461 239.341 40.8275 238.723 40.9902C235.695 41.8366 233.14 44.6361 231.057 49.3887C229.201 53.653 228.273 57.9336 228.273 62.2305C228.273 62.3932 228.273 62.556 228.273 62.7188C228.371 66.6901 229.38 68.6758 231.301 68.6758C232.31 68.6432 233.547 68.0898 235.012 67.0156C236.509 65.9414 237.6 64.9323 238.283 63.9883C238.706 63.3698 239.276 61.5632 239.992 58.5684C241.294 53.002 242.108 48.347 242.434 44.6035Z" fill="#D9B7EB"/>
</svg>
